<svg width="59" height="58" viewBox="0 0 59 58" fill="none" xmlns="http://www.w3.org/2000/svg">
<g filter="url(#filter0_d)">
<path d="M50 0H10C7.23858 0 5 2.23858 5 5V45C5 47.7614 7.23858 50 10 50H50C52.7614 50 55 47.7614 55 45V5C55 2.23858 52.7614 0 50 0Z" fill="white"/>
</g>
<path d="M4.5 16C6.98528 16 9 13.9853 9 11.5C9 9.01472 6.98528 7 4.5 7C2.01472 7 0 9.01472 0 11.5C0 13.9853 2.01472 16 4.5 16Z" fill="#1DD719"/>
<path d="M4.5 43.75C6.84721 43.75 8.75 41.8472 8.75 39.5C8.75 37.1528 6.84721 35.25 4.5 35.25C2.15279 35.25 0.25 37.1528 0.25 39.5C0.25 41.8472 2.15279 43.75 4.5 43.75Z" fill="white" stroke="#D2D2D2" stroke-width="0.5"/>
<path d="M4.5 29.75C6.84721 29.75 8.75 27.8472 8.75 25.5C8.75 23.1528 6.84721 21.25 4.5 21.25C2.15279 21.25 0.25 23.1528 0.25 25.5C0.25 27.8472 2.15279 29.75 4.5 29.75Z" fill="white" stroke="#D2D2D2" stroke-width="0.5"/>
<path d="M2.70711 11.6845L3.83137 12.8087" stroke="white" stroke-linecap="round"/>
<path d="M3.90871 12.865L6.04335 10.0913" stroke="white" stroke-linecap="round"/>
<path d="M15 13H25" stroke="#89CDE2" stroke-width="2" stroke-linecap="round"/>
<path d="M46 13H47" stroke="#89CDE2" stroke-width="2" stroke-linecap="round"/>
<path d="M42 13H43" stroke="#89CDE2" stroke-width="2" stroke-linecap="round"/>
<path d="M15 10H47" stroke="#89CDE2" stroke-width="2" stroke-linecap="round"/>
<path d="M15 27H25" stroke="#FFD5A5" stroke-width="2" stroke-linecap="round"/>
<path d="M46 27H47" stroke="#FFD5A5" stroke-width="2" stroke-linecap="round"/>
<path d="M42 27H43" stroke="#FFD5A5" stroke-width="2" stroke-linecap="round"/>
<path d="M15 24H47" stroke="#FFD5A5" stroke-width="2" stroke-linecap="round"/>
<path d="M15 41H25" stroke="#FFB3B3" stroke-width="2" stroke-linecap="round"/>
<path d="M46 41H47" stroke="#FFB3B3" stroke-width="2" stroke-linecap="round"/>
<path d="M42 41H43" stroke="#FFB3B3" stroke-width="2" stroke-linecap="round"/>
<path d="M15 38H47" stroke="#FFB3B3" stroke-width="2" stroke-linecap="round"/>
<defs>
<filter id="filter0_d" x="1" y="0" width="58" height="58" filterUnits="userSpaceOnUse" color-interpolation-filters="sRGB">
<feFlood flood-opacity="0" result="BackgroundImageFix"/>
<feColorMatrix in="SourceAlpha" type="matrix" values="0 0 0 0 0 0 0 0 0 0 0 0 0 0 0 0 0 0 127 0"/>
<feOffset dy="4"/>
<feGaussianBlur stdDeviation="2"/>
<feColorMatrix type="matrix" values="0 0 0 0 0 0 0 0 0 0 0 0 0 0 0 0 0 0 0.25 0"/>
<feBlend mode="normal" in2="BackgroundImageFix" result="effect1_dropShadow"/>
<feBlend mode="normal" in="SourceGraphic" in2="effect1_dropShadow" result="shape"/>
</filter>
</defs>
</svg>
